# xmcd CD database file
#
# Track frame offsets:
#	150
#	24470
#	48087
#	61525
#	97047
#	114467
#	149337
#	170017
#	192662
#	213772
#	234612
#	257655
#
# Disc length: 3802 seconds
#
# Revision: 2
# Processed by: cddbd v1.5PL3 Copyright (c) Steve Scherf et al.
# Submitted via: CDex 1.51
#
DISCID=a40ed80c
DTITLE=Tab Benoit - Live: Swampland Jam
DYEAR=1997
DGENRE=Blues
TTITLE0=Let Love Take Control
TTITLE1=Ain't Gonna Do It
TTITLE2=Moon Coming Over The Hill
TTITLE3=Too Many Dirty Dishes w/Henry Gray
TTITLE4=Keep On Moving
TTITLE5=Heart of Stone
TTITLE6=Gone Too Long
TTITLE7=Garbage Man w/Ryful Neal
TTITLE8=Crawling Kingsnake  w/ Jumpin ' Johnny Sansone
TTITLE9=Louisiana Style  w/Jumpin' Johnny Sansone
TTITLE10=It Takes A Long Time  w/Tabby Thomas
TTITLE11=Hot Tamale Baby  w/Chubby Carrier
EXTD=YEAR: 1997
EXTT0=
EXTT1=
EXTT2=
EXTT3=
EXTT4=
EXTT5=
EXTT6=
EXTT7=
EXTT8=
EXTT9=
EXTT10=
EXTT11=
PLAYORDER=
